<svg xmlns="http://www.w3.org/2000/svg" width="1400" height="980" viewBox="0 0 1400 980">
<rect width="100%" height="100%" fill="#f6f7f2"/>
<style>text{font-family:Arial,"Microsoft YaHei",sans-serif}.title{font-size:25px;font-weight:700}.label{font-size:15px}.small{font-size:12px}.module{font-size:18px;font-weight:700}.tiny{font-size:10px}</style>
<text x="70" y="36" class="title" fill="#222">第一关 DXF 数据结构确认图</text>
<text x="70" y="64" class="label" fill="#555">外框/识别范围：160 x 128（outer_frame）；平台来源：3DSOLID；实体数：3</text>
<line x1="70.00" y1="796.00" x2="70.00" y2="100.00" stroke="#c8cdc4" stroke-width="1"/>
<line x1="124.38" y1="796.00" x2="124.38" y2="100.00" stroke="#dfe3da" stroke-width="1"/>
<line x1="178.75" y1="796.00" x2="178.75" y2="100.00" stroke="#c8cdc4" stroke-width="1"/>
<line x1="233.12" y1="796.00" x2="233.12" y2="100.00" stroke="#dfe3da" stroke-width="1"/>
<line x1="287.50" y1="796.00" x2="287.50" y2="100.00" stroke="#c8cdc4" stroke-width="1"/>
<line x1="341.88" y1="796.00" x2="341.88" y2="100.00" stroke="#dfe3da" stroke-width="1"/>
<line x1="396.25" y1="796.00" x2="396.25" y2="100.00" stroke="#c8cdc4" stroke-width="1"/>
<line x1="450.62" y1="796.00" x2="450.62" y2="100.00" stroke="#dfe3da" stroke-width="1"/>
<line x1="505.00" y1="796.00" x2="505.00" y2="100.00" stroke="#c8cdc4" stroke-width="1"/>
<line x1="559.38" y1="796.00" x2="559.38" y2="100.00" stroke="#dfe3da" stroke-width="1"/>
<line x1="613.75" y1="796.00" x2="613.75" y2="100.00" stroke="#c8cdc4" stroke-width="1"/>
<line x1="668.12" y1="796.00" x2="668.12" y2="100.00" stroke="#dfe3da" stroke-width="1"/>
<line x1="722.50" y1="796.00" x2="722.50" y2="100.00" stroke="#c8cdc4" stroke-width="1"/>
<line x1="776.88" y1="796.00" x2="776.88" y2="100.00" stroke="#dfe3da" stroke-width="1"/>
<line x1="831.25" y1="796.00" x2="831.25" y2="100.00" stroke="#c8cdc4" stroke-width="1"/>
<line x1="885.62" y1="796.00" x2="885.62" y2="100.00" stroke="#dfe3da" stroke-width="1"/>
<line x1="940.00" y1="796.00" x2="940.00" y2="100.00" stroke="#c8cdc4" stroke-width="1"/>
<line x1="70.00" y1="796.00" x2="940.00" y2="796.00" stroke="#c8cdc4" stroke-width="1"/>
<line x1="70.00" y1="741.62" x2="940.00" y2="741.62" stroke="#dfe3da" stroke-width="1"/>
<line x1="70.00" y1="687.25" x2="940.00" y2="687.25" stroke="#c8cdc4" stroke-width="1"/>
<line x1="70.00" y1="632.88" x2="940.00" y2="632.88" stroke="#dfe3da" stroke-width="1"/>
<line x1="70.00" y1="578.50" x2="940.00" y2="578.50" stroke="#c8cdc4" stroke-width="1"/>
<line x1="70.00" y1="524.12" x2="940.00" y2="524.12" stroke="#dfe3da" stroke-width="1"/>
<line x1="70.00" y1="469.75" x2="940.00" y2="469.75" stroke="#c8cdc4" stroke-width="1"/>
<line x1="70.00" y1="415.38" x2="940.00" y2="415.38" stroke="#dfe3da" stroke-width="1"/>
<line x1="70.00" y1="361.00" x2="940.00" y2="361.00" stroke="#c8cdc4" stroke-width="1"/>
<line x1="70.00" y1="306.62" x2="940.00" y2="306.62" stroke="#dfe3da" stroke-width="1"/>
<line x1="70.00" y1="252.25" x2="940.00" y2="252.25" stroke="#c8cdc4" stroke-width="1"/>
<line x1="70.00" y1="197.88" x2="940.00" y2="197.88" stroke="#dfe3da" stroke-width="1"/>
<line x1="70.00" y1="143.50" x2="940.00" y2="143.50" stroke="#c8cdc4" stroke-width="1"/>
<rect x="70.00" y="100.00" width="870.00" height="696.00" fill="none" stroke="#333" stroke-width="4"/>
<defs><marker id="arrowR" markerWidth="10" markerHeight="10" refX="8" refY="3" orient="auto" markerUnits="strokeWidth"><path d="M0,0 L0,6 L9,3 z" fill="#c83c32"/></marker><marker id="arrowB" markerWidth="10" markerHeight="10" refX="8" refY="3" orient="auto" markerUnits="strokeWidth"><path d="M0,0 L0,6 L9,3 z" fill="#2878be"/></marker></defs>
<line x1="1005.25" y1="448.00" x2="940.00" y2="448.00" stroke="#c83c32" stroke-width="6" marker-end="url(#arrowR)"/>
<line x1="70.00" y1="448.00" x2="4.75" y2="448.00" stroke="#2878be" stroke-width="6" marker-end="url(#arrowB)"/>
<text x="668.12" y="124.00" class="small" fill="#a33">上一关 X+ / 右侧入口</text>
<text x="70.00" y="830.00" class="small" fill="#267">下一关 X- / 左侧出口</text>
<rect x="70.00" y="252.25" width="87.00" height="543.75" fill="#7EA0C6" stroke="#263238" stroke-width="1.8" opacity="0.92"/>
<text x="113.50" y="522.12" class="tiny" text-anchor="middle" fill="#111">1</text>
<text x="113.50" y="535.12" class="tiny" text-anchor="middle" fill="#111">h2.4</text>
<rect x="200.50" y="252.25" width="304.50" height="543.75" fill="#8FB791" stroke="#263238" stroke-width="1.8" opacity="0.92"/>
<text x="352.75" y="522.12" class="tiny" text-anchor="middle" fill="#111">2</text>
<text x="352.75" y="535.12" class="tiny" text-anchor="middle" fill="#111">h2.4</text>
<rect x="559.38" y="252.25" width="380.62" height="543.75" fill="#CD976C" stroke="#263238" stroke-width="1.8" opacity="0.92"/>
<text x="749.69" y="522.12" class="tiny" text-anchor="middle" fill="#111">3</text>
<text x="749.69" y="535.12" class="tiny" text-anchor="middle" fill="#111">h2.4</text>
<text x="1010.0" y="110.0" class="module" fill="#222">结构列表</text>
<text x="1010.0" y="138.0" class="small" fill="#555">高度分布：h2.4=3</text>
<rect x="1010.0" y="156.0" width="14" height="14" fill="#7EA0C6" stroke="#263238"/>
<text x="1032.0" y="168.0" class="small" fill="#222">1. 1D5 start(0,0) 16x100 h2.4</text>
<rect x="1010.0" y="179.0" width="14" height="14" fill="#8FB791" stroke="#263238"/>
<text x="1032.0" y="191.0" class="small" fill="#222">2. 1DF start(24,0) 56x100 h2.4</text>
<rect x="1010.0" y="202.0" width="14" height="14" fill="#CD976C" stroke="#263238"/>
<text x="1032.0" y="214.0" class="small" fill="#222">3. 1EC start(90,0) 70x100 h2.4</text>
</svg>