<svg xmlns="http://www.w3.org/2000/svg" width="1400" height="980" viewBox="0 0 1400 980">
<rect width="100%" height="100%" fill="#f6f7f2"/>
<style>text{font-family:Arial,"Microsoft YaHei",sans-serif}.title{font-size:25px;font-weight:700}.label{font-size:15px}.small{font-size:12px}.module{font-size:18px;font-weight:700}.tiny{font-size:10px}</style>
<text x="70" y="36" class="title" fill="#222">第三关 DXF 数据结构确认图</text>
<text x="70" y="64" class="label" fill="#555">外框/识别范围：160 x 100（outer_frame）；平台来源：3DSOLID；实体数：15</text>
<line x1="70.00" y1="643.75" x2="70.00" y2="100.00" stroke="#c8cdc4" stroke-width="1"/>
<line x1="124.38" y1="643.75" x2="124.38" y2="100.00" stroke="#dfe3da" stroke-width="1"/>
<line x1="178.75" y1="643.75" x2="178.75" y2="100.00" stroke="#c8cdc4" stroke-width="1"/>
<line x1="233.12" y1="643.75" x2="233.12" y2="100.00" stroke="#dfe3da" stroke-width="1"/>
<line x1="287.50" y1="643.75" x2="287.50" y2="100.00" stroke="#c8cdc4" stroke-width="1"/>
<line x1="341.88" y1="643.75" x2="341.88" y2="100.00" stroke="#dfe3da" stroke-width="1"/>
<line x1="396.25" y1="643.75" x2="396.25" y2="100.00" stroke="#c8cdc4" stroke-width="1"/>
<line x1="450.62" y1="643.75" x2="450.62" y2="100.00" stroke="#dfe3da" stroke-width="1"/>
<line x1="505.00" y1="643.75" x2="505.00" y2="100.00" stroke="#c8cdc4" stroke-width="1"/>
<line x1="559.38" y1="643.75" x2="559.38" y2="100.00" stroke="#dfe3da" stroke-width="1"/>
<line x1="613.75" y1="643.75" x2="613.75" y2="100.00" stroke="#c8cdc4" stroke-width="1"/>
<line x1="668.12" y1="643.75" x2="668.12" y2="100.00" stroke="#dfe3da" stroke-width="1"/>
<line x1="722.50" y1="643.75" x2="722.50" y2="100.00" stroke="#c8cdc4" stroke-width="1"/>
<line x1="776.88" y1="643.75" x2="776.88" y2="100.00" stroke="#dfe3da" stroke-width="1"/>
<line x1="831.25" y1="643.75" x2="831.25" y2="100.00" stroke="#c8cdc4" stroke-width="1"/>
<line x1="885.62" y1="643.75" x2="885.62" y2="100.00" stroke="#dfe3da" stroke-width="1"/>
<line x1="940.00" y1="643.75" x2="940.00" y2="100.00" stroke="#c8cdc4" stroke-width="1"/>
<line x1="70.00" y1="643.75" x2="940.00" y2="643.75" stroke="#c8cdc4" stroke-width="1"/>
<line x1="70.00" y1="589.38" x2="940.00" y2="589.38" stroke="#dfe3da" stroke-width="1"/>
<line x1="70.00" y1="535.00" x2="940.00" y2="535.00" stroke="#c8cdc4" stroke-width="1"/>
<line x1="70.00" y1="480.62" x2="940.00" y2="480.62" stroke="#dfe3da" stroke-width="1"/>
<line x1="70.00" y1="426.25" x2="940.00" y2="426.25" stroke="#c8cdc4" stroke-width="1"/>
<line x1="70.00" y1="371.88" x2="940.00" y2="371.88" stroke="#dfe3da" stroke-width="1"/>
<line x1="70.00" y1="317.50" x2="940.00" y2="317.50" stroke="#c8cdc4" stroke-width="1"/>
<line x1="70.00" y1="263.12" x2="940.00" y2="263.12" stroke="#dfe3da" stroke-width="1"/>
<line x1="70.00" y1="208.75" x2="940.00" y2="208.75" stroke="#c8cdc4" stroke-width="1"/>
<line x1="70.00" y1="154.38" x2="940.00" y2="154.38" stroke="#dfe3da" stroke-width="1"/>
<line x1="70.00" y1="100.00" x2="940.00" y2="100.00" stroke="#c8cdc4" stroke-width="1"/>
<rect x="70.00" y="100.00" width="870.00" height="543.75" fill="none" stroke="#333" stroke-width="4"/>
<defs><marker id="arrowR" markerWidth="10" markerHeight="10" refX="8" refY="3" orient="auto" markerUnits="strokeWidth"><path d="M0,0 L0,6 L9,3 z" fill="#c83c32"/></marker><marker id="arrowB" markerWidth="10" markerHeight="10" refX="8" refY="3" orient="auto" markerUnits="strokeWidth"><path d="M0,0 L0,6 L9,3 z" fill="#2878be"/></marker></defs>
<line x1="1005.25" y1="371.88" x2="940.00" y2="371.88" stroke="#c83c32" stroke-width="6" marker-end="url(#arrowR)"/>
<line x1="70.00" y1="371.88" x2="4.75" y2="371.88" stroke="#2878be" stroke-width="6" marker-end="url(#arrowB)"/>
<text x="668.12" y="124.00" class="small" fill="#a33">上一关 X+ / 右侧入口</text>
<text x="70.00" y="677.75" class="small" fill="#267">下一关 X- / 左侧出口</text>
<rect x="70.00" y="269.92" width="87.00" height="203.91" fill="#7EA0C6" stroke="#263238" stroke-width="1.8" opacity="0.92"/>
<text x="113.50" y="369.88" class="tiny" text-anchor="middle" fill="#111">1</text>
<text x="113.50" y="382.88" class="tiny" text-anchor="middle" fill="#111">h3</text>
<rect x="222.25" y="516.31" width="130.50" height="93.46" fill="#7EA0C6" stroke="#263238" stroke-width="1.8" opacity="0.92"/>
<text x="287.50" y="561.04" class="tiny" text-anchor="middle" fill="#111">2</text>
<text x="287.50" y="574.04" class="tiny" text-anchor="middle" fill="#111">h3</text>
<rect x="222.25" y="388.87" width="130.50" height="93.46" fill="#7EA0C6" stroke="#263238" stroke-width="1.8" opacity="0.92"/>
<text x="287.50" y="433.60" class="tiny" text-anchor="middle" fill="#111">3</text>
<text x="287.50" y="446.60" class="tiny" text-anchor="middle" fill="#111">h3</text>
<rect x="222.25" y="261.43" width="130.50" height="93.46" fill="#7EA0C6" stroke="#263238" stroke-width="1.8" opacity="0.92"/>
<text x="287.50" y="306.15" class="tiny" text-anchor="middle" fill="#111">4</text>
<text x="287.50" y="319.15" class="tiny" text-anchor="middle" fill="#111">h3</text>
<rect x="222.25" y="133.98" width="130.50" height="93.46" fill="#7EA0C6" stroke="#263238" stroke-width="1.8" opacity="0.92"/>
<text x="287.50" y="178.71" class="tiny" text-anchor="middle" fill="#111">5</text>
<text x="287.50" y="191.71" class="tiny" text-anchor="middle" fill="#111">h3</text>
<rect x="396.25" y="516.31" width="130.50" height="93.46" fill="#7EA0C6" stroke="#263238" stroke-width="1.8" opacity="0.92"/>
<text x="461.50" y="561.04" class="tiny" text-anchor="middle" fill="#111">6</text>
<text x="461.50" y="574.04" class="tiny" text-anchor="middle" fill="#111">h3</text>
<rect x="396.25" y="388.87" width="130.50" height="93.46" fill="#7EA0C6" stroke="#263238" stroke-width="1.8" opacity="0.92"/>
<text x="461.50" y="433.60" class="tiny" text-anchor="middle" fill="#111">7</text>
<text x="461.50" y="446.60" class="tiny" text-anchor="middle" fill="#111">h3</text>
<rect x="396.25" y="261.43" width="130.50" height="93.46" fill="#7EA0C6" stroke="#263238" stroke-width="1.8" opacity="0.92"/>
<text x="461.50" y="306.15" class="tiny" text-anchor="middle" fill="#111">8</text>
<text x="461.50" y="319.15" class="tiny" text-anchor="middle" fill="#111">h3</text>
<rect x="396.25" y="133.98" width="130.50" height="93.46" fill="#7EA0C6" stroke="#263238" stroke-width="1.8" opacity="0.92"/>
<text x="461.50" y="178.71" class="tiny" text-anchor="middle" fill="#111">9</text>
<text x="461.50" y="191.71" class="tiny" text-anchor="middle" fill="#111">h3</text>
<rect x="570.25" y="516.31" width="130.50" height="93.46" fill="#7EA0C6" stroke="#263238" stroke-width="1.8" opacity="0.92"/>
<text x="635.50" y="561.04" class="tiny" text-anchor="middle" fill="#111">10</text>
<text x="635.50" y="574.04" class="tiny" text-anchor="middle" fill="#111">h3</text>
<rect x="570.25" y="388.87" width="130.50" height="93.46" fill="#7EA0C6" stroke="#263238" stroke-width="1.8" opacity="0.92"/>
<text x="635.50" y="433.60" class="tiny" text-anchor="middle" fill="#111">11</text>
<text x="635.50" y="446.60" class="tiny" text-anchor="middle" fill="#111">h3</text>
<rect x="570.25" y="261.43" width="130.50" height="93.46" fill="#7EA0C6" stroke="#263238" stroke-width="1.8" opacity="0.92"/>
<text x="635.50" y="306.15" class="tiny" text-anchor="middle" fill="#111">12</text>
<text x="635.50" y="319.15" class="tiny" text-anchor="middle" fill="#111">h3</text>
<rect x="570.25" y="133.98" width="130.50" height="93.46" fill="#7EA0C6" stroke="#263238" stroke-width="1.8" opacity="0.92"/>
<text x="635.50" y="178.71" class="tiny" text-anchor="middle" fill="#111">13</text>
<text x="635.50" y="191.71" class="tiny" text-anchor="middle" fill="#111">h3</text>
<rect x="744.25" y="337.89" width="65.25" height="67.97" fill="#7EA0C6" stroke="#263238" stroke-width="1.8" opacity="0.92"/>
<text x="776.88" y="369.88" class="tiny" text-anchor="middle" fill="#111">14</text>
<text x="776.88" y="382.88" class="tiny" text-anchor="middle" fill="#111">h3</text>
<rect x="809.50" y="235.94" width="130.50" height="271.88" fill="#7EA0C6" stroke="#263238" stroke-width="1.8" opacity="0.92"/>
<text x="874.75" y="369.88" class="tiny" text-anchor="middle" fill="#111">15</text>
<text x="874.75" y="382.88" class="tiny" text-anchor="middle" fill="#111">h3</text>
<text x="1010.0" y="110.0" class="module" fill="#222">结构列表</text>
<text x="1010.0" y="138.0" class="small" fill="#555">高度分布：h3=15</text>
<rect x="1010.0" y="156.0" width="14" height="14" fill="#7EA0C6" stroke="#263238"/>
<text x="1032.0" y="168.0" class="small" fill="#222">1. 83C start(0,31.25) 16x37.5 h3</text>
<rect x="1010.0" y="179.0" width="14" height="14" fill="#7EA0C6" stroke="#263238"/>
<text x="1032.0" y="191.0" class="small" fill="#222">2. 840 start(28,6.25) 24x17.1875 h3</text>
<rect x="1010.0" y="202.0" width="14" height="14" fill="#7EA0C6" stroke="#263238"/>
<text x="1032.0" y="214.0" class="small" fill="#222">3. 85C start(28,29.6875) 24x17.1875 h3</text>
<rect x="1010.0" y="225.0" width="14" height="14" fill="#7EA0C6" stroke="#263238"/>
<text x="1032.0" y="237.0" class="small" fill="#222">4. 860 start(28,53.125) 24x17.1875 h3</text>
<rect x="1010.0" y="248.0" width="14" height="14" fill="#7EA0C6" stroke="#263238"/>
<text x="1032.0" y="260.0" class="small" fill="#222">5. 864 start(28,76.5625) 24x17.1875 h3</text>
<rect x="1010.0" y="271.0" width="14" height="14" fill="#7EA0C6" stroke="#263238"/>
<text x="1032.0" y="283.0" class="small" fill="#222">6. 844 start(60,6.25) 24x17.1875 h3</text>
<rect x="1010.0" y="294.0" width="14" height="14" fill="#7EA0C6" stroke="#263238"/>
<text x="1032.0" y="306.0" class="small" fill="#222">7. 858 start(60,29.6875) 24x17.1875 h3</text>
<rect x="1010.0" y="317.0" width="14" height="14" fill="#7EA0C6" stroke="#263238"/>
<text x="1032.0" y="329.0" class="small" fill="#222">8. 86C start(60,53.125) 24x17.1875 h3</text>
<rect x="1010.0" y="340.0" width="14" height="14" fill="#7EA0C6" stroke="#263238"/>
<text x="1032.0" y="352.0" class="small" fill="#222">9. 868 start(60,76.5625) 24x17.1875 h3</text>
<rect x="1010.0" y="363.0" width="14" height="14" fill="#7EA0C6" stroke="#263238"/>
<text x="1032.0" y="375.0" class="small" fill="#222">10. 848 start(92,6.25) 24x17.1875 h3</text>
<rect x="1010.0" y="386.0" width="14" height="14" fill="#7EA0C6" stroke="#263238"/>
<text x="1032.0" y="398.0" class="small" fill="#222">11. 84C start(92,29.6875) 24x17.1875 h3</text>
<rect x="1010.0" y="409.0" width="14" height="14" fill="#7EA0C6" stroke="#263238"/>
<text x="1032.0" y="421.0" class="small" fill="#222">12. 850 start(92,53.125) 24x17.1875 h3</text>
<rect x="1010.0" y="432.0" width="14" height="14" fill="#7EA0C6" stroke="#263238"/>
<text x="1032.0" y="444.0" class="small" fill="#222">13. 854 start(92,76.5625) 24x17.1875 h3</text>
<rect x="1010.0" y="455.0" width="14" height="14" fill="#7EA0C6" stroke="#263238"/>
<text x="1032.0" y="467.0" class="small" fill="#222">14. 874 start(124,43.75) 12x12.5 h3</text>
<rect x="1010.0" y="478.0" width="14" height="14" fill="#7EA0C6" stroke="#263238"/>
<text x="1032.0" y="490.0" class="small" fill="#222">15. 870 start(136,25) 24x50 h3</text>
</svg>