<svg xmlns="http://www.w3.org/2000/svg" width="1400" height="980" viewBox="0 0 1400 980">
<rect width="100%" height="100%" fill="#f6f7f2"/>
<style>text{font-family:Arial,"Microsoft YaHei",sans-serif}.title{font-size:25px;font-weight:700}.label{font-size:15px}.small{font-size:12px}.module{font-size:18px;font-weight:700}.tiny{font-size:10px}</style>
<text x="70" y="36" class="title" fill="#222">第八关 DXF 数据结构确认图</text>
<text x="70" y="64" class="label" fill="#555">外框/识别范围：160 x 100（outer_frame）；平台来源：3DSOLID；实体数：66</text>
<line x1="70.00" y1="643.75" x2="70.00" y2="100.00" stroke="#c8cdc4" stroke-width="1"/>
<line x1="124.38" y1="643.75" x2="124.38" y2="100.00" stroke="#dfe3da" stroke-width="1"/>
<line x1="178.75" y1="643.75" x2="178.75" y2="100.00" stroke="#c8cdc4" stroke-width="1"/>
<line x1="233.12" y1="643.75" x2="233.12" y2="100.00" stroke="#dfe3da" stroke-width="1"/>
<line x1="287.50" y1="643.75" x2="287.50" y2="100.00" stroke="#c8cdc4" stroke-width="1"/>
<line x1="341.88" y1="643.75" x2="341.88" y2="100.00" stroke="#dfe3da" stroke-width="1"/>
<line x1="396.25" y1="643.75" x2="396.25" y2="100.00" stroke="#c8cdc4" stroke-width="1"/>
<line x1="450.62" y1="643.75" x2="450.62" y2="100.00" stroke="#dfe3da" stroke-width="1"/>
<line x1="505.00" y1="643.75" x2="505.00" y2="100.00" stroke="#c8cdc4" stroke-width="1"/>
<line x1="559.38" y1="643.75" x2="559.38" y2="100.00" stroke="#dfe3da" stroke-width="1"/>
<line x1="613.75" y1="643.75" x2="613.75" y2="100.00" stroke="#c8cdc4" stroke-width="1"/>
<line x1="668.12" y1="643.75" x2="668.12" y2="100.00" stroke="#dfe3da" stroke-width="1"/>
<line x1="722.50" y1="643.75" x2="722.50" y2="100.00" stroke="#c8cdc4" stroke-width="1"/>
<line x1="776.88" y1="643.75" x2="776.88" y2="100.00" stroke="#dfe3da" stroke-width="1"/>
<line x1="831.25" y1="643.75" x2="831.25" y2="100.00" stroke="#c8cdc4" stroke-width="1"/>
<line x1="885.62" y1="643.75" x2="885.62" y2="100.00" stroke="#dfe3da" stroke-width="1"/>
<line x1="940.00" y1="643.75" x2="940.00" y2="100.00" stroke="#c8cdc4" stroke-width="1"/>
<line x1="70.00" y1="643.75" x2="940.00" y2="643.75" stroke="#c8cdc4" stroke-width="1"/>
<line x1="70.00" y1="589.38" x2="940.00" y2="589.38" stroke="#dfe3da" stroke-width="1"/>
<line x1="70.00" y1="535.00" x2="940.00" y2="535.00" stroke="#c8cdc4" stroke-width="1"/>
<line x1="70.00" y1="480.62" x2="940.00" y2="480.62" stroke="#dfe3da" stroke-width="1"/>
<line x1="70.00" y1="426.25" x2="940.00" y2="426.25" stroke="#c8cdc4" stroke-width="1"/>
<line x1="70.00" y1="371.88" x2="940.00" y2="371.88" stroke="#dfe3da" stroke-width="1"/>
<line x1="70.00" y1="317.50" x2="940.00" y2="317.50" stroke="#c8cdc4" stroke-width="1"/>
<line x1="70.00" y1="263.12" x2="940.00" y2="263.12" stroke="#dfe3da" stroke-width="1"/>
<line x1="70.00" y1="208.75" x2="940.00" y2="208.75" stroke="#c8cdc4" stroke-width="1"/>
<line x1="70.00" y1="154.38" x2="940.00" y2="154.38" stroke="#dfe3da" stroke-width="1"/>
<line x1="70.00" y1="100.00" x2="940.00" y2="100.00" stroke="#c8cdc4" stroke-width="1"/>
<rect x="70.00" y="100.00" width="870.00" height="543.75" fill="none" stroke="#333" stroke-width="4"/>
<defs><marker id="arrowR" markerWidth="10" markerHeight="10" refX="8" refY="3" orient="auto" markerUnits="strokeWidth"><path d="M0,0 L0,6 L9,3 z" fill="#c83c32"/></marker><marker id="arrowB" markerWidth="10" markerHeight="10" refX="8" refY="3" orient="auto" markerUnits="strokeWidth"><path d="M0,0 L0,6 L9,3 z" fill="#2878be"/></marker></defs>
<line x1="1005.25" y1="371.88" x2="940.00" y2="371.88" stroke="#c83c32" stroke-width="6" marker-end="url(#arrowR)"/>
<line x1="70.00" y1="371.88" x2="4.75" y2="371.88" stroke="#2878be" stroke-width="6" marker-end="url(#arrowB)"/>
<text x="668.12" y="124.00" class="small" fill="#a33">上一关 X+ / 右侧入口</text>
<text x="70.00" y="677.75" class="small" fill="#267">下一关 X- / 左侧出口</text>
<rect x="70.00" y="201.95" width="108.75" height="237.89" fill="#7EA0C6" stroke="#263238" stroke-width="1.8" opacity="0.92"/>
<rect x="178.75" y="242.73" width="609.00" height="108.75" fill="#7EA0C6" stroke="#263238" stroke-width="1.8" opacity="0.92"/>
<rect x="178.75" y="329.73" width="609.00" height="21.75" fill="#D08B54" stroke="#8a3d2b" stroke-width="3" opacity="0.92"/>
<text x="483.25" y="338.61" class="tiny" text-anchor="middle" fill="#111">3</text>
<text x="483.25" y="351.61" class="tiny" text-anchor="middle" fill="#111">h5</text>
<rect x="178.75" y="242.73" width="609.00" height="21.75" fill="#D08B54" stroke="#8a3d2b" stroke-width="3" opacity="0.92"/>
<text x="483.25" y="251.61" class="tiny" text-anchor="middle" fill="#111">4</text>
<text x="483.25" y="264.61" class="tiny" text-anchor="middle" fill="#111">h5</text>
<rect x="197.78" y="298.20" width="190.31" height="9.79" fill="#7EA0C6" stroke="#263238" stroke-width="1.8" opacity="0.92"/>
<rect x="197.78" y="286.23" width="190.31" height="9.79" fill="#7EA0C6" stroke="#263238" stroke-width="1.8" opacity="0.92"/>
<rect x="216.81" y="307.98" width="2.72" height="21.75" fill="#B5C7E3" stroke="#8a3d2b" stroke-width="3" opacity="0.92"/>
<text x="218.17" y="316.86" class="tiny" text-anchor="middle" fill="#111">7</text>
<text x="218.17" y="329.86" class="tiny" text-anchor="middle" fill="#111">h1</text>
<rect x="216.81" y="264.48" width="2.72" height="21.75" fill="#B5C7E3" stroke="#8a3d2b" stroke-width="3" opacity="0.92"/>
<text x="218.17" y="273.36" class="tiny" text-anchor="middle" fill="#111">8</text>
<text x="218.17" y="286.36" class="tiny" text-anchor="middle" fill="#111">h1</text>
<rect x="220.08" y="541.80" width="65.25" height="67.97" fill="#7EA0C6" stroke="#263238" stroke-width="1.8" opacity="0.92"/>
<rect x="244.00" y="307.98" width="2.72" height="21.75" fill="#B5C7E3" stroke="#8a3d2b" stroke-width="3" opacity="0.92"/>
<text x="245.36" y="316.86" class="tiny" text-anchor="middle" fill="#111">10</text>
<text x="245.36" y="329.86" class="tiny" text-anchor="middle" fill="#111">h1</text>
<rect x="244.00" y="264.48" width="2.72" height="21.75" fill="#B5C7E3" stroke="#8a3d2b" stroke-width="3" opacity="0.92"/>
<text x="245.36" y="273.36" class="tiny" text-anchor="middle" fill="#111">11</text>
<text x="245.36" y="286.36" class="tiny" text-anchor="middle" fill="#111">h1</text>
<rect x="271.19" y="307.98" width="2.72" height="21.75" fill="#B5C7E3" stroke="#8a3d2b" stroke-width="3" opacity="0.92"/>
<text x="272.55" y="316.86" class="tiny" text-anchor="middle" fill="#111">12</text>
<text x="272.55" y="329.86" class="tiny" text-anchor="middle" fill="#111">h1</text>
<rect x="271.19" y="264.48" width="2.72" height="21.75" fill="#B5C7E3" stroke="#8a3d2b" stroke-width="3" opacity="0.92"/>
<text x="272.55" y="273.36" class="tiny" text-anchor="middle" fill="#111">13</text>
<text x="272.55" y="286.36" class="tiny" text-anchor="middle" fill="#111">h1</text>
<rect x="298.38" y="307.98" width="2.72" height="21.75" fill="#B5C7E3" stroke="#8a3d2b" stroke-width="3" opacity="0.92"/>
<text x="299.73" y="316.86" class="tiny" text-anchor="middle" fill="#111">14</text>
<text x="299.73" y="329.86" class="tiny" text-anchor="middle" fill="#111">h1</text>
<rect x="298.38" y="264.48" width="2.72" height="21.75" fill="#B5C7E3" stroke="#8a3d2b" stroke-width="3" opacity="0.92"/>
<text x="299.73" y="273.36" class="tiny" text-anchor="middle" fill="#111">15</text>
<text x="299.73" y="286.36" class="tiny" text-anchor="middle" fill="#111">h1</text>
<rect x="325.56" y="307.98" width="2.72" height="21.75" fill="#B5C7E3" stroke="#8a3d2b" stroke-width="3" opacity="0.92"/>
<text x="326.92" y="316.86" class="tiny" text-anchor="middle" fill="#111">16</text>
<text x="326.92" y="329.86" class="tiny" text-anchor="middle" fill="#111">h1</text>
<rect x="325.56" y="264.48" width="2.72" height="21.75" fill="#B5C7E3" stroke="#8a3d2b" stroke-width="3" opacity="0.92"/>
<text x="326.92" y="273.36" class="tiny" text-anchor="middle" fill="#111">17</text>
<text x="326.92" y="286.36" class="tiny" text-anchor="middle" fill="#111">h1</text>
<rect x="352.75" y="307.98" width="2.72" height="21.75" fill="#B5C7E3" stroke="#8a3d2b" stroke-width="3" opacity="0.92"/>
<text x="354.11" y="316.86" class="tiny" text-anchor="middle" fill="#111">18</text>
<text x="354.11" y="329.86" class="tiny" text-anchor="middle" fill="#111">h1</text>
<rect x="352.75" y="264.48" width="2.72" height="21.75" fill="#B5C7E3" stroke="#8a3d2b" stroke-width="3" opacity="0.92"/>
<text x="354.11" y="273.36" class="tiny" text-anchor="middle" fill="#111">19</text>
<text x="354.11" y="286.36" class="tiny" text-anchor="middle" fill="#111">h1</text>
<rect x="379.94" y="307.98" width="2.72" height="21.75" fill="#B5C7E3" stroke="#8a3d2b" stroke-width="3" opacity="0.92"/>
<text x="381.30" y="316.86" class="tiny" text-anchor="middle" fill="#111">20</text>
<text x="381.30" y="329.86" class="tiny" text-anchor="middle" fill="#111">h1</text>
<rect x="379.94" y="264.48" width="2.72" height="21.75" fill="#B5C7E3" stroke="#8a3d2b" stroke-width="3" opacity="0.92"/>
<text x="381.30" y="273.36" class="tiny" text-anchor="middle" fill="#111">21</text>
<text x="381.30" y="286.36" class="tiny" text-anchor="middle" fill="#111">h1</text>
<rect x="431.59" y="298.20" width="149.53" height="9.79" fill="#7EA0C6" stroke="#263238" stroke-width="1.8" opacity="0.92"/>
<rect x="431.59" y="298.20" width="149.53" height="9.79" fill="#7EA0C6" stroke="#263238" stroke-width="1.8" opacity="0.92"/>
<rect x="431.59" y="286.23" width="149.53" height="9.79" fill="#7EA0C6" stroke="#263238" stroke-width="1.8" opacity="0.92"/>
<rect x="431.59" y="286.23" width="149.53" height="9.79" fill="#7EA0C6" stroke="#263238" stroke-width="1.8" opacity="0.92"/>
<rect x="437.03" y="307.98" width="2.72" height="21.75" fill="#B5C7E3" stroke="#8a3d2b" stroke-width="3" opacity="0.92"/>
<text x="438.39" y="316.86" class="tiny" text-anchor="middle" fill="#111">26</text>
<text x="438.39" y="329.86" class="tiny" text-anchor="middle" fill="#111">h1</text>
<rect x="437.03" y="307.98" width="2.72" height="21.75" fill="#B5C7E3" stroke="#8a3d2b" stroke-width="3" opacity="0.92"/>
<text x="438.39" y="316.86" class="tiny" text-anchor="middle" fill="#111">27</text>
<text x="438.39" y="329.86" class="tiny" text-anchor="middle" fill="#111">h1</text>
<rect x="437.03" y="264.48" width="2.72" height="21.75" fill="#B5C7E3" stroke="#8a3d2b" stroke-width="3" opacity="0.92"/>
<text x="438.39" y="273.36" class="tiny" text-anchor="middle" fill="#111">28</text>
<text x="438.39" y="286.36" class="tiny" text-anchor="middle" fill="#111">h1</text>
<rect x="437.03" y="264.48" width="2.72" height="21.75" fill="#B5C7E3" stroke="#8a3d2b" stroke-width="3" opacity="0.92"/>
<text x="438.39" y="273.36" class="tiny" text-anchor="middle" fill="#111">29</text>
<text x="438.39" y="286.36" class="tiny" text-anchor="middle" fill="#111">h1</text>
<rect x="464.22" y="307.98" width="2.72" height="21.75" fill="#B5C7E3" stroke="#8a3d2b" stroke-width="3" opacity="0.92"/>
<text x="465.58" y="316.86" class="tiny" text-anchor="middle" fill="#111">30</text>
<text x="465.58" y="329.86" class="tiny" text-anchor="middle" fill="#111">h1</text>
<rect x="464.22" y="307.98" width="2.72" height="21.75" fill="#B5C7E3" stroke="#8a3d2b" stroke-width="3" opacity="0.92"/>
<text x="465.58" y="316.86" class="tiny" text-anchor="middle" fill="#111">31</text>
<text x="465.58" y="329.86" class="tiny" text-anchor="middle" fill="#111">h1</text>
<rect x="464.22" y="264.48" width="2.72" height="21.75" fill="#B5C7E3" stroke="#8a3d2b" stroke-width="3" opacity="0.92"/>
<text x="465.58" y="273.36" class="tiny" text-anchor="middle" fill="#111">32</text>
<text x="465.58" y="286.36" class="tiny" text-anchor="middle" fill="#111">h1</text>
<rect x="464.22" y="264.48" width="2.72" height="21.75" fill="#B5C7E3" stroke="#8a3d2b" stroke-width="3" opacity="0.92"/>
<text x="465.58" y="273.36" class="tiny" text-anchor="middle" fill="#111">33</text>
<text x="465.58" y="286.36" class="tiny" text-anchor="middle" fill="#111">h1</text>
<rect x="481.07" y="541.80" width="65.25" height="67.97" fill="#7EA0C6" stroke="#263238" stroke-width="1.8" opacity="0.92"/>
<rect x="491.41" y="307.98" width="2.72" height="21.75" fill="#B5C7E3" stroke="#8a3d2b" stroke-width="3" opacity="0.92"/>
<text x="492.77" y="316.86" class="tiny" text-anchor="middle" fill="#111">35</text>
<text x="492.77" y="329.86" class="tiny" text-anchor="middle" fill="#111">h1</text>
<rect x="491.41" y="307.98" width="2.72" height="21.75" fill="#B5C7E3" stroke="#8a3d2b" stroke-width="3" opacity="0.92"/>
<text x="492.77" y="316.86" class="tiny" text-anchor="middle" fill="#111">36</text>
<text x="492.77" y="329.86" class="tiny" text-anchor="middle" fill="#111">h1</text>
<rect x="491.41" y="264.48" width="2.72" height="21.75" fill="#B5C7E3" stroke="#8a3d2b" stroke-width="3" opacity="0.92"/>
<text x="492.77" y="273.36" class="tiny" text-anchor="middle" fill="#111">37</text>
<text x="492.77" y="286.36" class="tiny" text-anchor="middle" fill="#111">h1</text>
<rect x="491.41" y="264.48" width="2.72" height="21.75" fill="#B5C7E3" stroke="#8a3d2b" stroke-width="3" opacity="0.92"/>
<text x="492.77" y="273.36" class="tiny" text-anchor="middle" fill="#111">38</text>
<text x="492.77" y="286.36" class="tiny" text-anchor="middle" fill="#111">h1</text>
<rect x="518.59" y="307.98" width="2.72" height="21.75" fill="#B5C7E3" stroke="#8a3d2b" stroke-width="3" opacity="0.92"/>
<text x="519.95" y="316.86" class="tiny" text-anchor="middle" fill="#111">39</text>
<text x="519.95" y="329.86" class="tiny" text-anchor="middle" fill="#111">h1</text>
<rect x="518.59" y="307.98" width="2.72" height="21.75" fill="#B5C7E3" stroke="#8a3d2b" stroke-width="3" opacity="0.92"/>
<text x="519.95" y="316.86" class="tiny" text-anchor="middle" fill="#111">40</text>
<text x="519.95" y="329.86" class="tiny" text-anchor="middle" fill="#111">h1</text>
<rect x="518.59" y="264.48" width="2.72" height="21.75" fill="#B5C7E3" stroke="#8a3d2b" stroke-width="3" opacity="0.92"/>
<text x="519.95" y="273.36" class="tiny" text-anchor="middle" fill="#111">41</text>
<text x="519.95" y="286.36" class="tiny" text-anchor="middle" fill="#111">h1</text>
<rect x="518.59" y="264.48" width="2.72" height="21.75" fill="#B5C7E3" stroke="#8a3d2b" stroke-width="3" opacity="0.92"/>
<text x="519.95" y="273.36" class="tiny" text-anchor="middle" fill="#111">42</text>
<text x="519.95" y="286.36" class="tiny" text-anchor="middle" fill="#111">h1</text>
<rect x="545.78" y="307.98" width="2.72" height="21.75" fill="#B5C7E3" stroke="#8a3d2b" stroke-width="3" opacity="0.92"/>
<text x="547.14" y="316.86" class="tiny" text-anchor="middle" fill="#111">43</text>
<text x="547.14" y="329.86" class="tiny" text-anchor="middle" fill="#111">h1</text>
<rect x="545.78" y="307.98" width="2.72" height="21.75" fill="#B5C7E3" stroke="#8a3d2b" stroke-width="3" opacity="0.92"/>
<text x="547.14" y="316.86" class="tiny" text-anchor="middle" fill="#111">44</text>
<text x="547.14" y="329.86" class="tiny" text-anchor="middle" fill="#111">h1</text>
<rect x="545.78" y="264.48" width="2.72" height="21.75" fill="#B5C7E3" stroke="#8a3d2b" stroke-width="3" opacity="0.92"/>
<text x="547.14" y="273.36" class="tiny" text-anchor="middle" fill="#111">45</text>
<text x="547.14" y="286.36" class="tiny" text-anchor="middle" fill="#111">h1</text>
<rect x="545.78" y="264.48" width="2.72" height="21.75" fill="#B5C7E3" stroke="#8a3d2b" stroke-width="3" opacity="0.92"/>
<text x="547.14" y="273.36" class="tiny" text-anchor="middle" fill="#111">46</text>
<text x="547.14" y="286.36" class="tiny" text-anchor="middle" fill="#111">h1</text>
<rect x="572.97" y="307.98" width="2.72" height="21.75" fill="#B5C7E3" stroke="#8a3d2b" stroke-width="3" opacity="0.92"/>
<text x="574.33" y="316.86" class="tiny" text-anchor="middle" fill="#111">47</text>
<text x="574.33" y="329.86" class="tiny" text-anchor="middle" fill="#111">h1</text>
<rect x="572.97" y="307.98" width="2.72" height="21.75" fill="#B5C7E3" stroke="#8a3d2b" stroke-width="3" opacity="0.92"/>
<text x="574.33" y="316.86" class="tiny" text-anchor="middle" fill="#111">48</text>
<text x="574.33" y="329.86" class="tiny" text-anchor="middle" fill="#111">h1</text>
<rect x="572.97" y="264.48" width="2.72" height="21.75" fill="#B5C7E3" stroke="#8a3d2b" stroke-width="3" opacity="0.92"/>
<text x="574.33" y="273.36" class="tiny" text-anchor="middle" fill="#111">49</text>
<text x="574.33" y="286.36" class="tiny" text-anchor="middle" fill="#111">h1</text>
<rect x="572.97" y="264.48" width="2.72" height="21.75" fill="#B5C7E3" stroke="#8a3d2b" stroke-width="3" opacity="0.92"/>
<text x="574.33" y="273.36" class="tiny" text-anchor="middle" fill="#111">50</text>
<text x="574.33" y="286.36" class="tiny" text-anchor="middle" fill="#111">h1</text>
<rect x="621.91" y="298.20" width="149.53" height="9.79" fill="#7EA0C6" stroke="#263238" stroke-width="1.8" opacity="0.92"/>
<rect x="621.91" y="286.23" width="149.53" height="9.79" fill="#7EA0C6" stroke="#263238" stroke-width="1.8" opacity="0.92"/>
<rect x="627.34" y="307.98" width="2.72" height="21.75" fill="#B5C7E3" stroke="#8a3d2b" stroke-width="3" opacity="0.92"/>
<text x="628.70" y="316.86" class="tiny" text-anchor="middle" fill="#111">53</text>
<text x="628.70" y="329.86" class="tiny" text-anchor="middle" fill="#111">h1</text>
<rect x="627.34" y="264.48" width="2.72" height="21.75" fill="#B5C7E3" stroke="#8a3d2b" stroke-width="3" opacity="0.92"/>
<text x="628.70" y="273.36" class="tiny" text-anchor="middle" fill="#111">54</text>
<text x="628.70" y="286.36" class="tiny" text-anchor="middle" fill="#111">h1</text>
<rect x="654.53" y="307.98" width="2.72" height="21.75" fill="#B5C7E3" stroke="#8a3d2b" stroke-width="3" opacity="0.92"/>
<text x="655.89" y="316.86" class="tiny" text-anchor="middle" fill="#111">55</text>
<text x="655.89" y="329.86" class="tiny" text-anchor="middle" fill="#111">h1</text>
<rect x="654.53" y="264.48" width="2.72" height="21.75" fill="#B5C7E3" stroke="#8a3d2b" stroke-width="3" opacity="0.92"/>
<text x="655.89" y="273.36" class="tiny" text-anchor="middle" fill="#111">56</text>
<text x="655.89" y="286.36" class="tiny" text-anchor="middle" fill="#111">h1</text>
<rect x="681.72" y="307.98" width="2.72" height="21.75" fill="#B5C7E3" stroke="#8a3d2b" stroke-width="3" opacity="0.92"/>
<text x="683.08" y="316.86" class="tiny" text-anchor="middle" fill="#111">57</text>
<text x="683.08" y="329.86" class="tiny" text-anchor="middle" fill="#111">h1</text>
<rect x="681.72" y="264.48" width="2.72" height="21.75" fill="#B5C7E3" stroke="#8a3d2b" stroke-width="3" opacity="0.92"/>
<text x="683.08" y="273.36" class="tiny" text-anchor="middle" fill="#111">58</text>
<text x="683.08" y="286.36" class="tiny" text-anchor="middle" fill="#111">h1</text>
<rect x="708.91" y="307.98" width="2.72" height="21.75" fill="#B5C7E3" stroke="#8a3d2b" stroke-width="3" opacity="0.92"/>
<text x="710.27" y="316.86" class="tiny" text-anchor="middle" fill="#111">59</text>
<text x="710.27" y="329.86" class="tiny" text-anchor="middle" fill="#111">h1</text>
<rect x="708.91" y="264.48" width="2.72" height="21.75" fill="#B5C7E3" stroke="#8a3d2b" stroke-width="3" opacity="0.92"/>
<text x="710.27" y="273.36" class="tiny" text-anchor="middle" fill="#111">60</text>
<text x="710.27" y="286.36" class="tiny" text-anchor="middle" fill="#111">h1</text>
<rect x="736.09" y="307.98" width="2.72" height="21.75" fill="#B5C7E3" stroke="#8a3d2b" stroke-width="3" opacity="0.92"/>
<text x="737.45" y="316.86" class="tiny" text-anchor="middle" fill="#111">61</text>
<text x="737.45" y="329.86" class="tiny" text-anchor="middle" fill="#111">h1</text>
<rect x="736.09" y="264.48" width="2.72" height="21.75" fill="#B5C7E3" stroke="#8a3d2b" stroke-width="3" opacity="0.92"/>
<text x="737.45" y="273.36" class="tiny" text-anchor="middle" fill="#111">62</text>
<text x="737.45" y="286.36" class="tiny" text-anchor="middle" fill="#111">h1</text>
<rect x="763.28" y="307.98" width="2.72" height="21.75" fill="#B5C7E3" stroke="#8a3d2b" stroke-width="3" opacity="0.92"/>
<text x="764.64" y="316.86" class="tiny" text-anchor="middle" fill="#111">63</text>
<text x="764.64" y="329.86" class="tiny" text-anchor="middle" fill="#111">h1</text>
<rect x="763.28" y="264.48" width="2.72" height="21.75" fill="#B5C7E3" stroke="#8a3d2b" stroke-width="3" opacity="0.92"/>
<text x="764.64" y="273.36" class="tiny" text-anchor="middle" fill="#111">64</text>
<text x="764.64" y="286.36" class="tiny" text-anchor="middle" fill="#111">h1</text>
<rect x="787.75" y="188.36" width="65.25" height="367.03" fill="#7EA0C6" stroke="#263238" stroke-width="1.8" opacity="0.92"/>
<rect x="853.00" y="167.97" width="87.00" height="407.81" fill="#7EA0C6" stroke="#263238" stroke-width="1.8" opacity="0.92"/>
<text x="1010.0" y="110.0" class="module" fill="#222">结构列表</text>
<text x="1010.0" y="138.0" class="small" fill="#555">高度分布：h1=50, h3=14, h5=2</text>
<rect x="1010.0" y="156.0" width="14" height="14" fill="#7EA0C6" stroke="#263238"/>
<text x="1032.0" y="168.0" class="small" fill="#222">1. 789 start(0,37.5) 20x43.75 h3</text>
<rect x="1010.0" y="179.0" width="14" height="14" fill="#7EA0C6" stroke="#263238"/>
<text x="1032.0" y="191.0" class="small" fill="#222">2. 62D start(20,53.75) 112x20 h3</text>
<rect x="1010.0" y="202.0" width="14" height="14" fill="#D08B54" stroke="#263238"/>
<text x="1032.0" y="214.0" class="small" fill="#222">3. 632 start(20,53.75) 112x4 h5</text>
<rect x="1010.0" y="225.0" width="14" height="14" fill="#D08B54" stroke="#263238"/>
<text x="1032.0" y="237.0" class="small" fill="#222">4. 689 start(20,69.75) 112x4 h5</text>
<rect x="1010.0" y="248.0" width="14" height="14" fill="#7EA0C6" stroke="#263238"/>
<text x="1032.0" y="260.0" class="small" fill="#222">5. 80C start(23.5,61.75) 35x1.8 h3</text>
<rect x="1010.0" y="271.0" width="14" height="14" fill="#7EA0C6" stroke="#263238"/>
<text x="1032.0" y="283.0" class="small" fill="#222">6. 814 start(23.5,63.95) 35x1.8 h3</text>
<rect x="1010.0" y="294.0" width="14" height="14" fill="#B5C7E3" stroke="#263238"/>
<text x="1032.0" y="306.0" class="small" fill="#222">7. 840 start(27,57.75) 0.5x4 h1</text>
<rect x="1010.0" y="317.0" width="14" height="14" fill="#B5C7E3" stroke="#263238"/>
<text x="1032.0" y="329.0" class="small" fill="#222">8. 844 start(27,65.75) 0.5x4 h1</text>
<rect x="1010.0" y="340.0" width="14" height="14" fill="#7EA0C6" stroke="#263238"/>
<text x="1032.0" y="352.0" class="small" fill="#222">9. 785 start(27.6,6.25) 12x12.5 h3</text>
<rect x="1010.0" y="363.0" width="14" height="14" fill="#B5C7E3" stroke="#263238"/>
<text x="1032.0" y="375.0" class="small" fill="#222">10. 828 start(32,57.75) 0.5x4 h1</text>
<rect x="1010.0" y="386.0" width="14" height="14" fill="#B5C7E3" stroke="#263238"/>
<text x="1032.0" y="398.0" class="small" fill="#222">11. 83C start(32,65.75) 0.5x4 h1</text>
<rect x="1010.0" y="409.0" width="14" height="14" fill="#B5C7E3" stroke="#263238"/>
<text x="1032.0" y="421.0" class="small" fill="#222">12. 824 start(37,57.75) 0.5x4 h1</text>
<rect x="1010.0" y="432.0" width="14" height="14" fill="#B5C7E3" stroke="#263238"/>
<text x="1032.0" y="444.0" class="small" fill="#222">13. 838 start(37,65.75) 0.5x4 h1</text>
<rect x="1010.0" y="455.0" width="14" height="14" fill="#B5C7E3" stroke="#263238"/>
<text x="1032.0" y="467.0" class="small" fill="#222">14. 820 start(42,57.75) 0.5x4 h1</text>
<rect x="1010.0" y="478.0" width="14" height="14" fill="#B5C7E3" stroke="#263238"/>
<text x="1032.0" y="490.0" class="small" fill="#222">15. 834 start(42,65.75) 0.5x4 h1</text>
<rect x="1010.0" y="501.0" width="14" height="14" fill="#B5C7E3" stroke="#263238"/>
<text x="1032.0" y="513.0" class="small" fill="#222">16. 81C start(47,57.75) 0.5x4 h1</text>
<rect x="1010.0" y="524.0" width="14" height="14" fill="#B5C7E3" stroke="#263238"/>
<text x="1032.0" y="536.0" class="small" fill="#222">17. 830 start(47,65.75) 0.5x4 h1</text>
<rect x="1010.0" y="547.0" width="14" height="14" fill="#B5C7E3" stroke="#263238"/>
<text x="1032.0" y="559.0" class="small" fill="#222">18. 818 start(52,57.75) 0.5x4 h1</text>
<rect x="1010.0" y="570.0" width="14" height="14" fill="#B5C7E3" stroke="#263238"/>
<text x="1032.0" y="582.0" class="small" fill="#222">19. 82C start(52,65.75) 0.5x4 h1</text>
<rect x="1010.0" y="593.0" width="14" height="14" fill="#B5C7E3" stroke="#263238"/>
<text x="1032.0" y="605.0" class="small" fill="#222">20. 808 start(57,57.75) 0.5x4 h1</text>
<rect x="1010.0" y="616.0" width="14" height="14" fill="#B5C7E3" stroke="#263238"/>
<text x="1032.0" y="628.0" class="small" fill="#222">21. 810 start(57,65.75) 0.5x4 h1</text>
<rect x="1010.0" y="639.0" width="14" height="14" fill="#7EA0C6" stroke="#263238"/>
<text x="1032.0" y="651.0" class="small" fill="#222">22. 685 start(66.5,61.75) 27.5x1.8 h3</text>
<text x="1010.0" y="682.0" class="small" fill="#777">... 其余 44 个实体已在图中绘制，列表省略</text>
<text x="70" y="948" class="label" fill="#9a4b00">第8关含大量立体构件：非 h=3 构件用棕红描边突出，注意高度分布。</text>
</svg>