<svg xmlns="http://www.w3.org/2000/svg" width="1045" height="795" viewBox="0 0 1045 795">
<rect width="100%" height="100%" fill="white"/>
<style>text{font-family:Arial, sans-serif;} .small{font-size:11px;} .label{font-size:10px;fill:#111;} .axis{font-size:11px;fill:#555;} .title{font-size:18px;font-weight:700;}</style>
<text x="95" y="26" class="title">Level 8 top view - turned around 180 degrees</text>
<text x="95" y="48" style="font-size:13px;fill:#444">Rule: x=100-originalX-width, z=80-originalZ-depth. Entry connects from Level 7 on the right.</text>
<line x1="95" y1="710.0" x2="95" y2="70.0" stroke="#c9c9c9" stroke-width="1"/>
<line x1="135" y1="710.0" x2="135" y2="70.0" stroke="#e8e8e8" stroke-width="0.6"/>
<line x1="175" y1="710.0" x2="175" y2="70.0" stroke="#c9c9c9" stroke-width="1"/>
<line x1="215" y1="710.0" x2="215" y2="70.0" stroke="#e8e8e8" stroke-width="0.6"/>
<line x1="255" y1="710.0" x2="255" y2="70.0" stroke="#c9c9c9" stroke-width="1"/>
<line x1="295" y1="710.0" x2="295" y2="70.0" stroke="#e8e8e8" stroke-width="0.6"/>
<line x1="335" y1="710.0" x2="335" y2="70.0" stroke="#c9c9c9" stroke-width="1"/>
<line x1="375" y1="710.0" x2="375" y2="70.0" stroke="#e8e8e8" stroke-width="0.6"/>
<line x1="415" y1="710.0" x2="415" y2="70.0" stroke="#c9c9c9" stroke-width="1"/>
<line x1="455" y1="710.0" x2="455" y2="70.0" stroke="#e8e8e8" stroke-width="0.6"/>
<line x1="495" y1="710.0" x2="495" y2="70.0" stroke="#c9c9c9" stroke-width="1"/>
<line x1="535" y1="710.0" x2="535" y2="70.0" stroke="#e8e8e8" stroke-width="0.6"/>
<line x1="575" y1="710.0" x2="575" y2="70.0" stroke="#c9c9c9" stroke-width="1"/>
<line x1="615" y1="710.0" x2="615" y2="70.0" stroke="#e8e8e8" stroke-width="0.6"/>
<line x1="655" y1="710.0" x2="655" y2="70.0" stroke="#c9c9c9" stroke-width="1"/>
<line x1="695" y1="710.0" x2="695" y2="70.0" stroke="#e8e8e8" stroke-width="0.6"/>
<line x1="735" y1="710.0" x2="735" y2="70.0" stroke="#c9c9c9" stroke-width="1"/>
<line x1="775" y1="710.0" x2="775" y2="70.0" stroke="#e8e8e8" stroke-width="0.6"/>
<line x1="815" y1="710.0" x2="815" y2="70.0" stroke="#c9c9c9" stroke-width="1"/>
<line x1="855" y1="710.0" x2="855" y2="70.0" stroke="#e8e8e8" stroke-width="0.6"/>
<line x1="895" y1="710.0" x2="895" y2="70.0" stroke="#c9c9c9" stroke-width="1"/>
<line x1="95" y1="710.0" x2="895.0" y2="710.0" stroke="#c9c9c9" stroke-width="1"/>
<line x1="95" y1="670.0" x2="895.0" y2="670.0" stroke="#e8e8e8" stroke-width="0.6"/>
<line x1="95" y1="630.0" x2="895.0" y2="630.0" stroke="#c9c9c9" stroke-width="1"/>
<line x1="95" y1="590.0" x2="895.0" y2="590.0" stroke="#e8e8e8" stroke-width="0.6"/>
<line x1="95" y1="550.0" x2="895.0" y2="550.0" stroke="#c9c9c9" stroke-width="1"/>
<line x1="95" y1="510.0" x2="895.0" y2="510.0" stroke="#e8e8e8" stroke-width="0.6"/>
<line x1="95" y1="470.0" x2="895.0" y2="470.0" stroke="#c9c9c9" stroke-width="1"/>
<line x1="95" y1="430.0" x2="895.0" y2="430.0" stroke="#e8e8e8" stroke-width="0.6"/>
<line x1="95" y1="390.0" x2="895.0" y2="390.0" stroke="#c9c9c9" stroke-width="1"/>
<line x1="95" y1="350.0" x2="895.0" y2="350.0" stroke="#e8e8e8" stroke-width="0.6"/>
<line x1="95" y1="310.0" x2="895.0" y2="310.0" stroke="#c9c9c9" stroke-width="1"/>
<line x1="95" y1="270.0" x2="895.0" y2="270.0" stroke="#e8e8e8" stroke-width="0.6"/>
<line x1="95" y1="230.0" x2="895.0" y2="230.0" stroke="#c9c9c9" stroke-width="1"/>
<line x1="95" y1="190.0" x2="895.0" y2="190.0" stroke="#e8e8e8" stroke-width="0.6"/>
<line x1="95" y1="150.0" x2="895.0" y2="150.0" stroke="#c9c9c9" stroke-width="1"/>
<line x1="95" y1="110.0" x2="895.0" y2="110.0" stroke="#e8e8e8" stroke-width="0.6"/>
<line x1="95" y1="70.0" x2="895.0" y2="70.0" stroke="#c9c9c9" stroke-width="1"/>
<text x="87" y="732.0" class="axis">0</text>
<text x="287" y="732.0" class="axis">25</text>
<text x="487" y="732.0" class="axis">50</text>
<text x="687" y="732.0" class="axis">75</text>
<text x="887" y="732.0" class="axis">100</text>
<text x="57" y="714.0" class="axis">0</text>
<text x="57" y="554.0" class="axis">20</text>
<text x="57" y="394.0" class="axis">40</text>
<text x="57" y="234.0" class="axis">60</text>
<text x="57" y="74.0" class="axis">80</text>
<rect x="95" y="70.0" width="800.0" height="640.0" fill="none" stroke="#222" stroke-width="3"/>
<rect x="295.0" y="390.0" width="560.0" height="160.0" fill="#6599db" fill-opacity="0.88" stroke="#333" stroke-width="1.2"><title>62D 70x20 start=(25,20)</title></rect>
<text x="575.0" y="474.0" text-anchor="middle" class="label">70x20</text>
<rect x="175.0" y="174.0" width="120.0" height="432.0" fill="#6599db" fill-opacity="0.88" stroke="#333" stroke-width="1.2"><title>40F 15x54 start=(10,13)</title></rect>
<text x="235.0" y="394.0" text-anchor="middle" class="label">15x54</text>
<rect x="95.0" y="150.0" width="80.0" height="480.0" fill="#6599db" fill-opacity="0.88" stroke="#333" stroke-width="1.2"><title>406 10x60 start=(0,10)</title></rect>
<text x="135.0" y="394.0" text-anchor="middle" class="label">10x60</text>
<rect x="295.0" y="390.0" width="560.0" height="32.0" fill="#6599db" fill-opacity="0.88" stroke="#333" stroke-width="1.2"><title>632 70x4 start=(25,36)</title></rect>
<text x="575.0" y="410.0" text-anchor="middle" class="label">70x4</text>
<rect x="295.0" y="518.0" width="560.0" height="32.0" fill="#6599db" fill-opacity="0.88" stroke="#333" stroke-width="1.2"><title>689 70x4 start=(25,20)</title></rect>
<text x="575.0" y="538.0" text-anchor="middle" class="label">70x4</text>
<rect x="855.0" y="310.0" width="40.0" height="280.0" fill="#6599db" fill-opacity="0.88" stroke="#333" stroke-width="1.2"><title>34A 5x35 start=(95,15)</title></rect>
<text x="875.0" y="454.0" text-anchor="middle" class="label">5x35</text>
<rect x="747.0" y="110.0" width="60.0" height="80.0" fill="#6bb07c" fill-opacity="0.88" stroke="#333" stroke-width="1.2"><title>626 7.5x10 start=(81.5,65)</title></rect>
<text x="777.0" y="154.0" text-anchor="middle" class="label">7.5x10</text>
<rect x="507.0" y="110.0" width="60.0" height="80.0" fill="#6bb07c" fill-opacity="0.88" stroke="#333" stroke-width="1.2"><title>575 7.5x10 start=(51.5,65)</title></rect>
<text x="537.0" y="154.0" text-anchor="middle" class="label">7.5x10</text>
<rect x="599.0" y="454.0" width="220.0" height="14.4" fill="#ec9b4a" fill-opacity="0.88" stroke="#333" stroke-width="1.2"><title>685 27.5x1.8 start=(63,30.2)</title></rect>
<rect x="599.0" y="471.6" width="220.0" height="14.4" fill="#ec9b4a" fill-opacity="0.88" stroke="#333" stroke-width="1.2"><title>6C1 27.5x1.8 start=(63,28)</title></rect>
<rect x="319.0" y="454.0" width="220.0" height="14.4" fill="#ec9b4a" fill-opacity="0.88" stroke="#333" stroke-width="1.2"><title>681 27.5x1.8 start=(28,30.2)</title></rect>
<rect x="319.0" y="471.6" width="220.0" height="14.4" fill="#ec9b4a" fill-opacity="0.88" stroke="#333" stroke-width="1.2"><title>6BD 27.5x1.8 start=(28,28)</title></rect>
<rect x="807.0" y="422.0" width="4.0" height="32.0" fill="#c75961" fill-opacity="0.88" stroke="#333" stroke-width="1.2"><title>675 0.5x4 start=(89,32)</title></rect>
<rect x="807.0" y="486.0" width="4.0" height="32.0" fill="#c75961" fill-opacity="0.88" stroke="#333" stroke-width="1.2"><title>6B9 0.5x4 start=(89,24)</title></rect>
<rect x="767.0" y="422.0" width="4.0" height="32.0" fill="#c75961" fill-opacity="0.88" stroke="#333" stroke-width="1.2"><title>671 0.5x4 start=(84,32)</title></rect>
<rect x="767.0" y="486.0" width="4.0" height="32.0" fill="#c75961" fill-opacity="0.88" stroke="#333" stroke-width="1.2"><title>6B5 0.5x4 start=(84,24)</title></rect>
<rect x="727.0" y="422.0" width="4.0" height="32.0" fill="#c75961" fill-opacity="0.88" stroke="#333" stroke-width="1.2"><title>66D 0.5x4 start=(79,32)</title></rect>
<rect x="727.0" y="486.0" width="4.0" height="32.0" fill="#c75961" fill-opacity="0.88" stroke="#333" stroke-width="1.2"><title>6B1 0.5x4 start=(79,24)</title></rect>
<rect x="687.0" y="422.0" width="4.0" height="32.0" fill="#c75961" fill-opacity="0.88" stroke="#333" stroke-width="1.2"><title>669 0.5x4 start=(74,32)</title></rect>
<rect x="687.0" y="486.0" width="4.0" height="32.0" fill="#c75961" fill-opacity="0.88" stroke="#333" stroke-width="1.2"><title>6AD 0.5x4 start=(74,24)</title></rect>
<rect x="647.0" y="422.0" width="4.0" height="32.0" fill="#c75961" fill-opacity="0.88" stroke="#333" stroke-width="1.2"><title>665 0.5x4 start=(69,32)</title></rect>
<rect x="647.0" y="486.0" width="4.0" height="32.0" fill="#c75961" fill-opacity="0.88" stroke="#333" stroke-width="1.2"><title>6A9 0.5x4 start=(69,24)</title></rect>
<rect x="607.0" y="422.0" width="4.0" height="32.0" fill="#c75961" fill-opacity="0.88" stroke="#333" stroke-width="1.2"><title>661 0.5x4 start=(64,32)</title></rect>
<rect x="607.0" y="486.0" width="4.0" height="32.0" fill="#c75961" fill-opacity="0.88" stroke="#333" stroke-width="1.2"><title>6A5 0.5x4 start=(64,24)</title></rect>
<rect x="527.0" y="422.0" width="4.0" height="32.0" fill="#c75961" fill-opacity="0.88" stroke="#333" stroke-width="1.2"><title>65D 0.5x4 start=(54,32)</title></rect>
<rect x="527.0" y="486.0" width="4.0" height="32.0" fill="#c75961" fill-opacity="0.88" stroke="#333" stroke-width="1.2"><title>6A1 0.5x4 start=(54,24)</title></rect>
<rect x="487.0" y="422.0" width="4.0" height="32.0" fill="#c75961" fill-opacity="0.88" stroke="#333" stroke-width="1.2"><title>659 0.5x4 start=(49,32)</title></rect>
<rect x="487.0" y="486.0" width="4.0" height="32.0" fill="#c75961" fill-opacity="0.88" stroke="#333" stroke-width="1.2"><title>69D 0.5x4 start=(49,24)</title></rect>
<rect x="447.0" y="422.0" width="4.0" height="32.0" fill="#c75961" fill-opacity="0.88" stroke="#333" stroke-width="1.2"><title>655 0.5x4 start=(44,32)</title></rect>
<rect x="447.0" y="486.0" width="4.0" height="32.0" fill="#c75961" fill-opacity="0.88" stroke="#333" stroke-width="1.2"><title>699 0.5x4 start=(44,24)</title></rect>
<rect x="407.0" y="422.0" width="4.0" height="32.0" fill="#c75961" fill-opacity="0.88" stroke="#333" stroke-width="1.2"><title>651 0.5x4 start=(39,32)</title></rect>
<rect x="407.0" y="486.0" width="4.0" height="32.0" fill="#c75961" fill-opacity="0.88" stroke="#333" stroke-width="1.2"><title>695 0.5x4 start=(39,24)</title></rect>
<rect x="367.0" y="422.0" width="4.0" height="32.0" fill="#c75961" fill-opacity="0.88" stroke="#333" stroke-width="1.2"><title>645 0.5x4 start=(34,32)</title></rect>
<rect x="367.0" y="422.0" width="4.0" height="32.0" fill="#c75961" fill-opacity="0.88" stroke="#333" stroke-width="1.2"><title>649 0.5x4 start=(34,32)</title></rect>
<rect x="367.0" y="422.0" width="4.0" height="32.0" fill="#c75961" fill-opacity="0.88" stroke="#333" stroke-width="1.2"><title>64D 0.5x4 start=(34,32)</title></rect>
<rect x="367.0" y="486.0" width="4.0" height="32.0" fill="#c75961" fill-opacity="0.88" stroke="#333" stroke-width="1.2"><title>691 0.5x4 start=(34,24)</title></rect>
<rect x="327.0" y="422.0" width="4.0" height="32.0" fill="#c75961" fill-opacity="0.88" stroke="#333" stroke-width="1.2"><title>640 0.5x4 start=(29,32)</title></rect>
<rect x="327.0" y="486.0" width="4.0" height="32.0" fill="#c75961" fill-opacity="0.88" stroke="#333" stroke-width="1.2"><title>68D 0.5x4 start=(29,24)</title></rect>
<line x1="970.0" y1="390.0" x2="903.0" y2="390.0" stroke="#0055aa" stroke-width="5"/>
<polygon points="903.0,390.0 920.0,379.0 920.0,401.0" fill="#0055aa"/>
<text x="908.0" y="356.0" style="font-size:14px;font-weight:700;fill:#0055aa">FROM LEVEL 7</text>
<text x="908.0" y="373.0" style="font-size:12px;fill:#0055aa">entry side</text>
<line x1="89" y1="390.0" x2="33" y2="390.0" stroke="#666" stroke-width="3"/>
<polygon points="33,390.0 50,381.0 50,399.0" fill="#666"/>
<text x="10" y="376.0" style="font-size:12px;fill:#666">to next</text>
<rect x="95" y="747.0" width="18" height="12" fill="#6599db" stroke="#333"/>
<text x="120" y="757.0" class="small" fill="#333">main/platform</text>
<rect x="265" y="747.0" width="18" height="12" fill="#ec9b4a" stroke="#333"/>
<text x="290" y="757.0" class="small" fill="#333">thin raised pieces</text>
<rect x="435" y="747.0" width="18" height="12" fill="#c75961" stroke="#333"/>
<text x="460" y="757.0" class="small" fill="#333">0.5x4 small solids</text>
<rect x="605" y="747.0" width="18" height="12" fill="#6bb07c" stroke="#333"/>
<text x="630" y="757.0" class="small" fill="#333">small platforms</text>
</svg>